<svg width="112" height="32" viewBox="0 0 112 32" fill="none" xmlns="http://www.w3.org/2000/svg">
<path d="M32 10.7925H21.1576V0H10.7671C10.7671 5.96226 5.94824 10.7925 0 10.7925V21.2075H10.7671V32H21.1576C21.1576 26.0377 26.0518 21.2075 32 21.2075V10.7925Z" fill="#F5AA21"/>
<path d="M41.992 26V8.12H48.304C49.488 8.12 50.528 8.344 51.424 8.792C52.32 9.24 53.016 9.88 53.512 10.712C54.024 11.544 54.28 12.52 54.28 13.64C54.28 14.904 53.96 15.976 53.32 16.856C52.68 17.736 51.816 18.368 50.728 18.752L54.88 26H52.144L47.776 18.248L49.336 19.16H44.344V26H41.992ZM44.344 17H48.376C49.08 17 49.696 16.864 50.224 16.592C50.752 16.32 51.16 15.928 51.448 15.416C51.752 14.904 51.904 14.312 51.904 13.64C51.904 12.952 51.752 12.36 51.448 11.864C51.16 11.352 50.752 10.96 50.224 10.688C49.696 10.416 49.08 10.28 48.376 10.28H44.344V17ZM62.5159 26.288C61.2679 26.288 60.1559 25.992 59.1799 25.4C58.2039 24.808 57.4359 24 56.8759 22.976C56.3159 21.936 56.0359 20.776 56.0359 19.496C56.0359 18.2 56.3079 17.048 56.8519 16.04C57.4119 15.032 58.1639 14.24 59.1079 13.664C60.0679 13.072 61.1399 12.776 62.3239 12.776C63.2839 12.776 64.1319 12.952 64.8679 13.304C65.6199 13.64 66.2519 14.104 66.7639 14.696C67.2919 15.272 67.6919 15.936 67.9639 16.688C68.2519 17.424 68.3959 18.192 68.3959 18.992C68.3959 19.168 68.3799 19.368 68.3479 19.592C68.3319 19.8 68.3079 20 68.2759 20.192H57.6679V18.272H66.9799L65.9239 19.136C66.0679 18.304 65.9879 17.56 65.6839 16.904C65.3799 16.248 64.9319 15.728 64.3399 15.344C63.7479 14.96 63.0759 14.768 62.3239 14.768C61.5719 14.768 60.8839 14.96 60.2599 15.344C59.6359 15.728 59.1479 16.28 58.7959 17C58.4599 17.704 58.3239 18.544 58.3879 19.52C58.3239 20.464 58.4679 21.296 58.8199 22.016C59.1879 22.72 59.6999 23.272 60.3559 23.672C61.0279 24.056 61.7559 24.248 62.5399 24.248C63.4039 24.248 64.1319 24.048 64.7239 23.648C65.3159 23.248 65.7959 22.736 66.1639 22.112L68.0359 23.072C67.7799 23.664 67.3799 24.208 66.8359 24.704C66.3079 25.184 65.6759 25.568 64.9399 25.856C64.2199 26.144 63.4119 26.288 62.5159 26.288ZM71.3061 26V13.064H73.4901V15.584L73.1301 15.368C73.4501 14.552 73.9621 13.92 74.6661 13.472C75.3861 13.008 76.2261 12.776 77.1861 12.776C78.1141 12.776 78.9381 12.984 79.6581 13.4C80.3941 13.816 80.9701 14.392 81.3861 15.128C81.8181 15.864 82.0341 16.696 82.0341 17.624V26H79.7781V18.344C79.7781 17.624 79.6501 17.016 79.3941 16.52C79.1381 16.024 78.7701 15.64 78.2901 15.368C77.8261 15.08 77.2901 14.936 76.6821 14.936C76.0741 14.936 75.5301 15.08 75.0501 15.368C74.5861 15.64 74.2181 16.032 73.9461 16.544C73.6741 17.04 73.5381 17.64 73.5381 18.344V26H71.3061ZM91.372 26.288C90.124 26.288 88.996 26 87.988 25.424C86.98 24.832 86.18 24.024 85.588 23C84.996 21.976 84.7 20.816 84.7 19.52C84.7 18.224 84.988 17.072 85.564 16.064C86.156 15.056 86.956 14.256 87.964 13.664C88.972 13.072 90.108 12.776 91.372 12.776C92.62 12.776 93.748 13.072 94.756 13.664C95.764 14.24 96.556 15.032 97.132 16.04C97.724 17.048 98.02 18.208 98.02 19.52C98.02 20.832 97.716 22 97.108 23.024C96.5 24.032 95.692 24.832 94.684 25.424C93.692 26 92.588 26.288 91.372 26.288ZM91.372 24.128C92.172 24.128 92.892 23.928 93.532 23.528C94.188 23.128 94.7 22.576 95.068 21.872C95.452 21.168 95.644 20.384 95.644 19.52C95.644 18.64 95.452 17.864 95.068 17.192C94.7 16.504 94.188 15.96 93.532 15.56C92.892 15.144 92.172 14.936 91.372 14.936C90.556 14.936 89.82 15.144 89.164 15.56C88.524 15.96 88.012 16.504 87.628 17.192C87.244 17.864 87.052 18.64 87.052 19.52C87.052 20.384 87.244 21.168 87.628 21.872C88.012 22.576 88.524 23.128 89.164 23.528C89.82 23.928 90.556 24.128 91.372 24.128ZM104.297 26L99.2328 13.064H101.729L105.785 24.008H104.921L109.001 13.064H111.497L106.409 26H104.297Z" fill="white"/>
</svg>
