<svg width="48" height="48" viewBox="0 0 48 48" fill="none" xmlns="http://www.w3.org/2000/svg">
<rect x="0.1" y="0.1" width="47.8" height="47.8" rx="11.9" fill="#F5AA21"/>
<rect x="0.1" y="0.1" width="47.8" height="47.8" rx="11.9" stroke="url(#paint0_linear_22123_64349)" stroke-width="0.2"/>
<path fill-rule="evenodd" clip-rule="evenodd" d="M24.2599 18.2577C24.7757 17.7418 25.6125 17.7414 26.1284 18.2573L29.616 21.7449C30.1319 22.2608 30.1315 23.0976 29.6156 23.6135V23.6135C29.0997 24.1293 28.2629 24.1297 27.747 23.6138L24.2595 20.1263C23.7436 19.6104 23.744 18.7736 24.2599 18.2577V18.2577Z" stroke="black" stroke-width="1.5" stroke-linecap="round" stroke-linejoin="round"/>
<rect x="14.9966" y="14.9961" width="18.0075" height="18.0075" rx="5" stroke="black" stroke-width="1.5" stroke-linecap="round" stroke-linejoin="round"/>
<path d="M25.1197 20.9863L19.5494 26.5566C19.4095 26.6962 19.3142 26.8741 19.2753 27.0679L19.0082 28.4024C18.9755 28.5663 19.0269 28.7356 19.1451 28.8538C19.2632 28.9719 19.4325 29.0233 19.5964 28.9907L20.933 28.7236C21.1267 28.6847 21.3046 28.5893 21.4442 28.4494L27.0145 22.8791" stroke="black" stroke-width="1.5" stroke-linecap="round" stroke-linejoin="round"/>
<path d="M19.6812 24.9902L23.6828 27.3912" stroke="black" stroke-width="1.5" stroke-linecap="round" stroke-linejoin="round"/>
<path d="M21.8032 22.8672L25.8049 25.2682" stroke="black" stroke-width="1.5" stroke-linecap="round" stroke-linejoin="round"/>
<defs>
<linearGradient id="paint0_linear_22123_64349" x1="7" y1="12" x2="41.5" y2="49" gradientUnits="userSpaceOnUse">
<stop stop-color="#787878"/>
<stop offset="1" stop-color="white"/>
</linearGradient>
</defs>
</svg>
